<?xml version="1.0" encoding="utf-8"?>
<!-- Generator: Adobe Illustrator 15.0.2, SVG Export Plug-In  -->
<!DOCTYPE svg PUBLIC "-//W3C//DTD SVG 1.1//EN" "http://www.w3.org/Graphics/SVG/1.1/DTD/svg11.dtd" [
	<!ENTITY ns_flows "http://ns.adobe.com/Flows/1.0/">
]>
<svg version="1.1"
	 xmlns="http://www.w3.org/2000/svg" xmlns:xlink="http://www.w3.org/1999/xlink" xmlns:a="http://ns.adobe.com/AdobeSVGViewerExtensions/3.0/"
	 x="0px" y="0px" width="699px" height="160px" viewBox="-1.871 -1.728 699 160" enable-background="new -1.871 -1.728 699 160"
	 xml:space="preserve">
<defs>
</defs>
<path fill="#AB9257" d="M163.343,56.769c-25.673,0-46.753-24.378-46.753-24.378S98.571,45.816,87.737,64.188
	c-11.07,18.725-15.899,29.088-11.306,29.088c7.066,0,13.072-8.243,13.072-8.243v2.119c0,0-5.417,8.244-14.838,8.244
	c-4.593,0-6.948-3.651-6.948-11.659c-6.948,8.479-12.13,11.659-16.723,11.659c-4.946,0-9.657-5.889-9.657-12.602
	c0-16.016,23.318-34.152,23.318-44.751c0-12.13-8.715-18.843-21.434-18.843c-26.969,0-42.161,19.431-42.161,33.21
	c0,9.893,8.597,18.137,18.372,18.137c6.006,0,13.779-1.531,19.196-4.594l0.354,0.707c-4.946,3.18-11.423,4.946-19.549,4.946
	C8.597,71.607,0,63.011,0,52.411c0-14.367,14.957-34.27,43.221-34.27c15.427,0,27.204,9.068,27.204,26.733
	c0,7.066-2.944,10.246-7.655,16.605c-6.477,8.715-16.134,19.902-16.134,27.086c0,3.063,1.531,5.535,4.357,5.535
	c5.653,0,12.483-7.301,16.487-13.072C74.9,70.43,82.555,49.585,113.763,29.564c0,0-15.31-11.423-25.438-11.423h-6.36v-0.707h5.417
	c12.719,0,18.254,1.766,29.677,10.717c15.781-6.006,19.314-7.537,32.857-7.537c19.078,0,31.208,10.246,31.208,22.611
	C181.126,50.292,172.765,56.769,163.343,56.769z M149.918,21.792c-14.839,0-30.737,8.361-30.737,8.361s24.731,25.438,44.163,25.438
	c9.186,0,16.605-6.595,16.605-12.365C179.948,31.095,167.583,21.792,149.918,21.792z"/>
<path fill="#AB9257" d="M131.188,87.741c-3.416,3.887-6.831,7.185-11.895,7.185c-4.475,0-6.478-3.181-6.831-7.185
	c-0.118-1.767-0.118-3.297,2.473-7.184l9.774-14.956c1.06-1.649,1.649-2.944,1.649-3.533c0-0.707-0.471-1.061-1.767-1.061
	c-3.297,0-11.895,5.889-20.492,20.374c-3.769,6.242-5.771,12.366-8.479,12.366c-1.531,0-3.062-1.061-4.357-1.061
	c-1.06,0-4.357,3.533-4.357,3.533l18.136-34.624c0.942-1.766,1.649-2.826,3.533-2.826c2.12,0,2.473,0.942,4.122,0.942
	c1.06,0,2.473-2.591,4.357-3.415l-6.006,11.306c7.772-6.831,12.483-9.893,17.665-9.893c3.297,0,5.417,2.12,5.417,5.417
	c0,2.12-0.589,3.769-2.237,6.359l-10.953,17.076c-1.178,1.767-2.12,3.298-2.12,4.005c0,1.413,0.707,2.119,2.473,2.119
	c2.237,0,5.888-2.826,9.774-7.065l17.312-19.079l0.942,0.825C146.733,70.43,131.188,87.741,131.188,87.741z"/>
<path fill="#AB9257" d="M145.907,94.808c-4.122,0-7.302-2.474-7.302-7.066c0-8.008,7.655-18.96,11.777-26.497
	c0.824-1.531,1.06-2.474,3.18-2.474c3.533,0,2.355,1.061,4.004,1.061c0.942,0,3.062-3.18,4.476-3.533l-14.957,28.499
	c-0.942,1.767-1.178,3.651-1.178,4.476c0,1.648,0.942,3.062,2.826,3.062c4.476,0,24.496-22.375,27.322-25.791l0.942,0.825
	C167.694,78.438,153.444,94.808,145.907,94.808z M164.161,50.763c-2.473,0-4.475-2.12-4.475-4.594c0-3.297,2.826-6.123,6.006-6.123
	c2.473,0,4.24,1.885,4.24,4.004C169.932,47.465,167.105,50.763,164.161,50.763z"/>
<path fill="#AB9257" d="M189.479,93.748c1.649,2.708,4.122,9.774,4.122,12.601c0,11.07-8.715,27.204-18.254,27.204
	c-4.946,0-7.773-4.122-7.773-10.245c0-6.124,3.18-12.483,17.547-32.976c-4.593,3.651-6.242,4.476-9.421,4.476
	c-5.535,0-7.301-5.889-7.301-12.365c0-13.309,15.31-24.731,26.026-24.731c2.12,0,2.827,0.471,4.946,2.12
	c0.942-0.942,1.649-1.061,2.826-1.061c1.649,0,2.355,0.824,4.004,0.824c1.178,0,3.062-3.062,4.357-3.297l-20.727,35.801
	c8.715-2.826,17.194-6.83,29.795-25.556l0.942,0.825C210.206,83.855,201.255,90.686,189.479,93.748z M195.367,60.184
	c-7.066,0-19.667,21.552-19.667,28.735c0,2.002,1.295,3.18,3.062,3.18c3.651,0,6.124-4.239,12.13-15.191
	c5.535-10.011,6.595-11.542,6.595-14.957C197.487,60.655,196.544,60.184,195.367,60.184z M188.065,94.808
	c-11.07,18.372-11.423,19.785-11.423,28.853c0,2.827,1.531,4.946,4.004,4.946c4.475,0,11.188-12.954,11.188-22.258
	C191.834,103.287,190.774,100.107,188.065,94.808z"/>
<path fill="#AB9257" d="M236.819,94.808c-3.769,0-6.359-3.063-6.948-9.893c-6.124,6.948-8.126,9.893-14.485,9.893
	c-4.829,0-6.006-4.004-6.006-5.889c0-3.297,0.589-6.595,3.887-12.483l8.833-16.016c0.942-1.649,2.002-1.649,3.18-1.649
	c0.942,0,2.355,0.824,3.886,0.824c1.06,0,2.944-2.943,4.24-3.297l-14.015,26.38c-1.648,3.062-2.12,5.771-2.12,6.595
	c0,1.648,0.824,3.062,3.062,3.062c1.649,0,9.068-7.301,13.779-15.663l9.186-16.369c0.589-1.06,1.414-1.531,2.709-1.531
	c1.767,0,2.473,0.824,4.24,0.824c1.06,0,2.708-2.708,4.239-3.297l-14.957,28.146c-1.413,2.591-1.884,3.65-1.884,5.182
	c0,1.413,0.942,2.355,3.062,2.355c5.3,0,17.547-11.188,27.793-25.438l0.942,0.825C264.73,74.434,249.538,94.808,236.819,94.808z"/>
<path fill="#AB9257" d="M270.852,94.808c-6.595,0-10.364-5.182-10.364-10.6c0-16.369,18.136-26.497,26.969-26.497
	c3.651,0,6.713,2.826,6.713,6.478c0,11.541-20.374,16.134-24.378,16.134c-1.295,2.826-2.12,4.239-2.12,8.243
	c0,2.474,0.824,4.357,3.18,4.357c11.776,0,29.56-19.313,33.799-26.38l0.942,0.825C302.06,73.256,284.042,94.808,270.852,94.808z
	 M285.808,59.242c-3.415,0-8.833,6.359-14.838,18.254c6.595,0,17.312-11.188,17.312-15.546
	C288.281,60.184,287.457,59.242,285.808,59.242z"/>
<path fill="#AB9257" d="M547.351,94.808c-5.182,0-7.065-2.826-8.95-6.948c-4.121,5.535-7.654,6.948-11.188,6.948
	c-4.593,0-8.008-3.887-8.008-11.659c0-10.599,10.952-25.438,26.38-25.438c2.473,0,4.239,0.354,6.006,2.826
	c0,0,1.295-1.767,2.473-1.767c1.413,0,3.533,0.707,4.946,0.707c0.942,0,2.591-2.709,3.887-3.18l-15.428,28.971
	c-1.648,3.062-2.002,4.122-2.002,5.417c0,1.178,0.824,2.355,2.591,2.355c4.357,0,19.078-14.132,29.324-26.498l0.942,0.825
	C565.841,82.678,553.239,94.808,547.351,94.808z M547.351,59.831c-10.245,0-21.197,22.729-21.197,29.323
	c0,2.474,0.353,3.887,2.354,3.887c4.357,0,7.42-4.593,9.304-7.772c4.829-8.244,12.013-20.728,12.013-22.611
	C549.824,61.361,549,59.831,547.351,59.831z"/>
<path fill="#AB9257" d="M594.927,82.206c-6.948,9.422-14.956,12.602-20.727,12.602c-3.415,0-6.242-3.533-6.242-7.772
	c0-3.298,0.942-5.064,2.474-8.126l9.304-18.726h-8.715l1.884-1.767h9.539c6.948-4.475,9.657-7.301,18.607-20.844h1.296
	l-11.895,20.844h8.832l-0.706,1.767h-8.833l-12.248,21.434c-1.413,2.474-2.708,4.476-2.708,6.242c0,1.531,1.531,4.475,3.18,4.475
	c4.711,0,12.365-6.595,15.78-11.069c0,0,7.891-10.011,11.306-14.722l0.942,0.825C601.993,73.728,594.927,82.206,594.927,82.206z"/>
<path fill="#AB9257" d="M608.938,94.808c-8.243,0-11.894-4.122-11.894-10.6c0-17.665,15.191-26.497,26.615-26.497
	c4.004,0,7.065,2.826,7.065,6.124c0,3.533-3.415,6.948-7.065,6.948c-2.827,0-4.24-1.296-4.24-3.063c0-0.824,0.118-2.473,1.178-4.004
	c1.296,1.061,2.474,1.531,3.415,1.531c0.825,0,3.651-1.885,3.651-3.887c0-1.413-1.06-2.473-4.004-2.473
	c-7.537,0-20.021,21.904-20.021,30.03c0,2.709,2.355,4.476,5.299,4.476c10.129,0,26.969-6.595,41.808-26.852l0.942,0.825
	C638.263,86.211,622.011,94.808,608.938,94.808z"/>
<path fill="#AB9257" d="M660.871,61.361l-2.355,5.182c6.242-5.888,12.248-8.832,15.192-8.832c2.826,0,4.828,2.12,4.828,4.946
	c0,6.83-15.428,25.438-15.428,27.322c0,1.06,0.589,2.119,1.649,2.119c5.534,0,18.843-16.841,26.262-25.556l0.942,0.825
	c-9.422,11.658-21.198,27.439-29.207,27.439c-3.65,0-6.477-2.355-6.477-5.653c0-5.535,15.191-23.436,15.191-27.086
	c0-0.472-0.353-1.178-0.941-1.178c-3.887,0-9.893,5.3-12.483,9.421c-9.068,15.781-12.013,23.554-14.485,23.554
	c-1.767,0-3.063-0.942-4.24-0.942c-1.413,0-2.237,1.885-4.475,3.18c5.771-11.423,16.958-33.445,31.443-54.525
	c7.655-10.953,18.019-23.672,24.378-23.672c2.12,0,4.24,1.295,4.24,3.533C694.906,38.632,666.642,58.417,660.871,61.361z
	 M688.429,20.261c-4.593,0-15.074,18.843-26.145,37.921c17.43-11.541,27.322-27.675,27.322-34.977
	C689.606,21.674,689.135,20.261,688.429,20.261z"/>
<path fill-rule="evenodd" clip-rule="evenodd" fill="#AB9257" d="M598.446,0.01c19.489-0.333,32.12,8.097,38.839,20.465
	c2.233,4.111,5.07,11.577,3.457,18.191c-0.247,1.011-0.092,1.786-0.365,2.729c-0.717,2.475-1.598,4.341-2.637,6.367
	c-0.511-0.238-1.519-0.848-1.638-1.455c0.967-1.155,1.117-3.273,1.546-5.003c1.584-6.362-1.669-14.137-3.82-18.101
	c-4.206-7.756-10.855-13.025-19.191-16.646c-2.08-0.904-4.171-1.156-6.549-1.819c-3.363-0.938-9.682-1.422-13.553-0.545
	c-0.813,0.184-1.387-0.02-2.183,0.181c-3.111,0.786-6.186,1.297-9.006,2.366c-7.873,2.983-15.216,6.943-21.647,11.46
	c-2.938,2.064-5.521,4.581-8.367,6.731c-0.886,0.667-1.574,1.697-2.457,2.364c-1.189,0.9-2.316,1.954-3.365,3.002
	c-0.424,0.455-0.848,0.909-1.273,1.364c-1.236,0.934-2.431,2.128-3.365,3.365c-0.592,0.783-1.529,1.356-2.184,2.092
	c-1.763,1.983-3.67,3.878-5.274,6.004c-0.448,0.594-1.187,1.041-1.638,1.637c-1.562,2.066-3.532,3.754-5.093,5.821
	c-0.45,0.596-1.189,1.043-1.639,1.637c-1.513,2.001-3.399,3.64-4.91,5.64c-0.305,0.273-0.607,0.547-0.91,0.819
	c-0.585,0.772-1.235,1.41-1.819,2.183c-0.424,0.393-0.85,0.788-1.273,1.182c-0.935,1.238-2.099,2.192-3.184,3.275
	c-1.84,1.837-3.631,3.691-5.549,5.458c-1.91,1.759-3.709,3.708-5.548,5.547c-0.606,0.637-1.214,1.274-1.82,1.911
	c-1.457,1.101-2.627,2.538-3.91,3.82c-0.752,0.752-1.772,1.477-2.366,2.364c-0.421,0.635-0.443,1.521-0.727,2.273
	c-1.13,3.008-3.226,8.371-6.912,8.642c-0.211-0.188-0.466-0.219-0.637-0.455c-0.582-0.713-0.345-2.341-0.091-3.184
	c0.423-1.409,0.76-2.516,1.455-3.638c0.303-0.488,0.693-1.205,1.091-1.637c0.122-0.132,0.47-0.203,0.546-0.364
	c0-0.485,0-0.971,0-1.456c-0.185-0.296-0.001-0.85-0.091-1.273c-0.373-1.758,0.089-4.45,0.091-6.367
	c0.002-1.905-0.148-4.552,0.092-6.003c0.029-1.515,0.06-3.031,0.091-4.547c0.695-3.113,0.872-6.121,1.273-9.461
	c-0.03,0-0.061,0-0.091,0c-0.583,0.905-1.458,1.614-2.092,2.457c-1.88,2.496-4.14,4.52-6.187,6.821
	c-3.175,3.57-6.524,7.011-9.914,10.369c-0.832,0.825-1.93,1.521-2.638,2.456c-0.634,0.84-1.354,1.626-2.093,2.364
	c-0.758,0.728-1.515,1.456-2.272,2.183c-0.415,0.719-0.406,1.714-0.729,2.457c-1.133,2.617-2.755,5.47-4.912,7.095
	c-1.294,0.975-2.169,2.235-4.547,1.637c-0.273-0.404-0.527-0.476-0.546-1.183c-0.438-0.725,0.485-2.088,0.729-2.546
	c1.241-2.35,2.933-4.556,4.819-6.276c-0.04-2.274,0.363-4.418,0.819-6.367c0-0.424,0-0.85,0-1.273
	c0.194-0.875,0.172-2.135,0.362-3.002c0-0.454,0-0.909,0-1.364c0.343-1.531,0.209-3.479,0.548-5.003c0-0.394,0-0.788,0-1.181
	c0.322-1.441,0.18-3.035,0.546-4.55c0.833-3.453,1.036-7.039,2.182-10.188c0.962-2.643,1.882-5.439,3.274-7.731
	c0.503-0.827,1.908-2.649,2.092-3.547c-0.03,0-0.06,0-0.09,0c-0.955,0.7-2.523,0.232-3.912,0.546
	c-1.869,0.422-4.335,0.124-6.276,0.546c-0.635,0-1.272,0-1.909,0c-2.175,0.479-4.869,0.077-7.005,0.546c-0.423,0-0.848,0-1.272,0
	c-1.837,0.416-3.861,0.271-5.73,0.728c-4.345,1.059-8.449,1.775-11.551,4.002c-1.411,1.013-2.721,2.699-3.276,4.548
	c-0.739,2.475,0.266,5.953,1.092,7.55c2.805,5.41,10.586,10.69,18.92,9.642c0.152,0.575,0.305,1.152,0.455,1.728
	c-0.1,0.083-0.008-0.007-0.091,0.091c-4.016,0.521-7.849-0.277-10.732-1.364c-5.41-2.036-9.686-5.064-12.553-9.642
	c-0.833-1.33-1.5-2.842-2.001-4.547c-0.169-0.571-0.017-1.02-0.182-1.638c-0.136-0.509-0.384-1.772-0.183-2.546
	c0.479-1.841,1.027-3.331,2.001-4.64c1.132-1.521,2.977-2.354,4.639-3.366c2.366-1.44,5.273-2.134,8.368-2.91
	c2.062-0.242,4.124-0.485,6.186-0.728c0.516,0,1.031,0,1.546,0c1.566-0.341,3.682-0.02,5.276-0.364c0.727,0,1.455,0,2.182,0
	c2.189,0,4.901,0.234,6.822-0.183c0.759,0,1.517,0,2.274,0c0.878-0.19,1.982,0.043,3.001-0.181c1.829-0.401,4.026-0.337,5.73-0.727
	c0.215-1.198,1.402-1.717,2.002-2.548c0.283-0.393,0.359-0.87,0.637-1.273c0.15-0.121,0.303-0.243,0.454-0.364
	c1.17-1.558,2.632-2.728,4.274-3.82c1.166-0.774,2.136-1.644,4.094-1.638c0.473,0.414,1.013,0.442,1.092,1.274
	c0.809,1.042-0.351,2.972-0.728,3.547c-1.001,1.526-2.251,2.877-3.729,3.912c-1.08,0.754-2.462,1.062-3.095,2.272
	c-2.691,5.172-3.888,11.51-5.547,17.737c-0.572,2.146-0.521,4.262-1.091,6.458c-0.546,2.099-0.753,4.516-1.274,6.64
	c-0.061,0.606-0.122,1.214-0.182,1.82c-0.416,1.712-0.929,4.162-1.092,5.912c0.06,0,0.12,0,0.183,0
	c0.298-0.87,1.304-1.487,1.91-2.092c1.561-1.562,3.168-3.077,4.729-4.64c1.654-1.655,3.403-3.4,4.82-5.275
	c0.303-0.272,0.605-0.546,0.91-0.818c1.021-1.351,2.252-2.468,3.273-3.821c0.303-0.272,0.605-0.545,0.91-0.818
	c1.43-1.887,3.318-3.402,4.729-5.275c0.704-0.934,1.317-1.846,2.001-2.82c0.227-0.322,0.654-0.621,0.818-0.999
	c0.152-0.819,0.303-1.638,0.455-2.457c0.543-1.63,1.069-3.43,1.638-5.002c0.526-1.46,0.606-2.892,1.273-4.185
	c0.501-0.97,1.234-1.853,1.818-2.728c0.607-0.911,1.007-1.909,1.637-2.82c0.55-0.795,1.541-1.461,2.274-2.092
	c0.557-0.479,2.114-2.023,3.185-1.273c0.805,0.269,1.302,1.976,1.001,3.274c-0.533,2.29-1.107,4.181-2.093,6.004
	c-1.407,2.6-3.354,4.762-4.367,7.73c-0.378,1.11-0.254,2.113-0.545,3.365c-0.58,2.5-0.519,5.203-1.092,7.731
	c-0.06,1.031-0.12,2.062-0.182,3.094c-0.607,2.688-0.301,5.863-0.909,8.549c0,0.484,0,0.97,0,1.456
	c-0.271,1.215-0.071,2.734-0.365,4.002c-0.334,1.452-0.586,3.227-0.637,4.82c0.031,0,0.062,0,0.092,0
	c4.772-5.418,10.223-10.225,15.1-15.553c2.199-2.405,4.744-4.467,6.73-7.096c0.272-0.242,0.546-0.484,0.818-0.728
	c1.047-1.384,2.318-2.525,3.365-3.911c0.304-0.273,0.607-0.546,0.91-0.818c3.086-4.081,7.104-7.381,10.187-11.46
	c0.333-0.305,0.667-0.607,1-0.91c0.482-0.541,0.929-1.059,1.365-1.638c0.515-0.484,1.031-0.97,1.547-1.455
	c1.364-1.807,3.138-3.321,4.729-4.912c2.046-2.045,4.043-4.247,6.368-6.003c0.273-0.302,0.546-0.606,0.819-0.909
	c1.393-1.054,2.537-2.418,3.91-3.457c1.497-1.131,2.785-2.532,4.274-3.639c2.731-2.025,5.458-4.187,8.369-6.002
	c4.119-2.569,8.516-4.816,13.097-6.913c2.408-1.102,5.031-1.819,7.551-2.729c2.406-0.868,5.071-1.172,7.64-1.818
	C595.051,0.312,597.823,0.425,598.446,0.01z"/>
<polygon fill="#AB9257" points="345.805,62.404 340.745,68.73 289.349,21.226 289.349,21.226 "/>
<circle fill="#AB9257" cx="354.629" cy="74.772" r="9.833"/>
<polygon fill="#AB9257" points="370.036,69.929 364.79,63.747 440.813,3.311 440.817,3.367 "/>
<polygon fill="#AB9257" points="352.879,88.772 356.379,88.772 354.754,156.731 353.796,156.773 "/>
<polygon fill="#AB9257" points="352.566,61.022 356.941,60.96 356.368,45.032 352.806,45.095 "/>
</svg>
